<svg xmlns="http://www.w3.org/2000/svg" viewBox="0 0 486.37 409.24"><title>icon-mask</title><path d="M467.43,125.6h-47L427.37,43a10.45,10.45,0,1,0-10-.85l-7,83.45H44.2a31.57,31.57,0,0,0-31.57,31.57V400.7A31.56,31.56,0,0,0,44.2,432.26H467.43A31.56,31.56,0,0,0,499,400.7V157.17A31.57,31.57,0,0,0,467.43,125.6ZM156.81,362.23a83.3,83.3,0,1,1,83.3-83.3A83.3,83.3,0,0,1,156.81,362.23ZM302.34,295a16.07,16.07,0,1,1,16.07-16.07A16.06,16.06,0,0,1,302.34,295Zm58.94,0a16.07,16.07,0,1,1,16.07-16.07A16.07,16.07,0,0,1,361.28,295Zm58.94,0a16.07,16.07,0,1,1,16.06-16.07A16.06,16.06,0,0,1,420.22,295ZM458,235H446.92V215.3H441.6V235H430.87v-9.83h-5.32V235H414.79V215.3h-5.32V235H398.74v-9.83h-5.32V235H382.66V215.3h-5.32V235H366.6v-9.83h-5.32V235H350.52V215.3H345.2V235H334.47v-9.83h-5.32V235H318.39V215.3h-5.32V235H302.33v-9.83H297V235H286.25V215.3h-5.32V235H270.2v-9.83h-5.32V235H252.13a95.75,95.75,0,0,0-38.39-39.33H458Z" transform="translate(-12.63 -23.03)"/><path d="M156.55,214.34a64.21,64.21,0,0,0-37.12,11.78h74.24A64.21,64.21,0,0,0,156.55,214.34Z" transform="translate(-12.63 -23.03)"/><path d="M105,240.07a64.69,64.69,0,0,0-9.08,16.61H217.19a64.69,64.69,0,0,0-9.08-16.61Z" transform="translate(-12.63 -23.03)"/><path d="M92,278.93a65,65,0,0,0,.55,8.31H220.6a63,63,0,0,0,0-16.61H92.51A65,65,0,0,0,92,278.93Z" transform="translate(-12.63 -23.03)"/><path d="M105,317.8H208.11a64.69,64.69,0,0,0,9.08-16.61H95.91A64.69,64.69,0,0,0,105,317.8Z" transform="translate(-12.63 -23.03)"/><path d="M156.55,343.53a64.21,64.21,0,0,0,37.12-11.78H119.43A64.21,64.21,0,0,0,156.55,343.53Z" transform="translate(-12.63 -23.03)"/></svg>