<svg id="Layer_1" data-name="Layer 1" xmlns="http://www.w3.org/2000/svg" viewBox="0 0 49.93 42.23"><title>social_twitter</title><path id="bird" d="M.42,38.24a2.17,2.17,0,0,1,.6.4A30.36,30.36,0,0,0,33.72,36c7.6-6.1,11.3-14.1,11.7-23.8a3,3,0,0,1,1.2-2.6,14,14,0,0,0,2.9-3c.2-.3.6-.6.3-.9s-.6,0-.8.1c-.9.2-1.7.5-2.6.7-.3.1-.7.2-.8-.1s.3-.5.5-.7a9,9,0,0,0,2.8-4.1c.1-.5,0-.5-.2-.4-1.2.5-2.5,1-3.7,1.5a3.56,3.56,0,0,1-4-.6,10.33,10.33,0,0,0-13.9,1.2,10.27,10.27,0,0,0-2.9,8.5c.1,1-.3,1.3-1.2,1.2-.3,0-.6-.1-.9-.1a30.38,30.38,0,0,1-18.5-9.6c-1.1-1.2-1.4-1.2-1.9.5A10.51,10.51,0,0,0,4,14.64c.3.4,1.1.7.7,1.2s-1,.1-1.5-.1c-.2-.1-.3-.1-.5-.2-1.5-.4-1.8-.2-1.5,1.3A10.64,10.64,0,0,0,7,24.54c.5.2,1.4.3,1.3.8-.1.7-1,.4-1.6.5h-.2c-1.7,0-1.8.2-1,1.7a10.74,10.74,0,0,0,6.9,5.2c.5.1,1.3,0,1.4.6s-.6.7-1,.9a22.75,22.75,0,0,1-7,2.9,23.25,23.25,0,0,1-5.2.4c-.2,0-.6,0-.6.2S.22,38.14.42,38.24Z"/></svg>