<svg id="Layer_1" data-name="Layer 1" xmlns="http://www.w3.org/2000/svg" viewBox="0 0 53 50.66"><title>social_linkedin</title><rect x="0.67" y="16.48" width="11.36" height="34.18"/><path d="M39.92,15.68a11.27,11.27,0,0,0-10.24,5.64V16.48H18.32c.15,3.21,0,34.18,0,34.18H29.68V31.57a7.65,7.65,0,0,1,.38-2.77,6.22,6.22,0,0,1,5.82-4.16c4.12,0,5.76,3.14,5.76,7.73V50.66H53V31.06C53,20.56,47.4,15.68,39.92,15.68Z"/><path d="M6.43,0C2.54,0,0,2.55,0,5.91s2.46,5.9,6.28,5.9h.07c4,0,6.43-2.62,6.43-5.91S10.31,0,6.43,0Z"/></svg>