<svg id="Layer_1" data-name="Layer 1" xmlns="http://www.w3.org/2000/svg" viewBox="0 0 27.2 52.47"><title>social_facebook</title><path id="ef" d="M1.4,28.47H6.3c1.7,0,1.7,0,1.7,1.7.1,3.5.1,6.9.1,10.3v10.2c0,1.8.1,1.8,1.9,1.8h6c1.6,0,1.8-.1,1.8-1.8v-20c0-2.2,0-2.2,2.2-2.2,1.3,0,2.7-.1,4,0s1.9-.3,2-1.6c.2-2.1.5-4.2.8-6.3.2-1.2-.3-1.5-1.4-1.4H19.2c-1.1,0-1.5-.4-1.5-1.5V13c.1-3,1.2-4.1,4.2-4.3a26.7,26.7,0,0,1,4,0c.9,0,1.3-.3,1.3-1.3V1.57c0-.8-.2-1.3-1.1-1.3-2.6-.1-5.2-.5-7.8-.1-5.8.7-9.2,4-10.1,9.7a45.76,45.76,0,0,0-.2,7.4c0,1.8,0,1.8-1.8,1.9H1.5c-1.1,0-1.5.3-1.5,1.4.1,2.2,0,4.4,0,6.5C0,28.07.4,28.47,1.4,28.47Z"/></svg>