<svg id="Layer_1" data-name="Layer 1" xmlns="http://www.w3.org/2000/svg" viewBox="0 0 52.99 53"><title>social_instagram</title><path d="M51.61,9.14a13,13,0,0,0-3.06-4.69,13,13,0,0,0-4.69-3.06A19.41,19.41,0,0,0,37.43.16C34.6,0,33.7,0,26.5,0S18.4,0,15.57.16A19.41,19.41,0,0,0,9.14,1.39,13,13,0,0,0,4.45,4.45,13,13,0,0,0,1.39,9.14,19.41,19.41,0,0,0,.16,15.57C0,18.4,0,19.3,0,26.5s0,8.1.16,10.93a19.41,19.41,0,0,0,1.23,6.43,13,13,0,0,0,3.06,4.69,13,13,0,0,0,4.69,3.06,19.41,19.41,0,0,0,6.43,1.23C18.4,53,19.3,53,26.5,53s8.1,0,10.93-.16a19.41,19.41,0,0,0,6.43-1.23,13.57,13.57,0,0,0,7.75-7.75,19.41,19.41,0,0,0,1.23-6.43C53,34.6,53,33.7,53,26.5s0-8.1-.16-10.93A19.41,19.41,0,0,0,51.61,9.14ZM48.07,37.21a14.78,14.78,0,0,1-.91,4.92,8.78,8.78,0,0,1-5,5,14.78,14.78,0,0,1-4.92.91c-2.8.13-3.63.15-10.71.15s-7.91,0-10.71-.15a14.78,14.78,0,0,1-4.92-.91,8.74,8.74,0,0,1-5-5,14.78,14.78,0,0,1-.91-4.92c-.13-2.8-.15-3.63-.15-10.71s0-7.91.15-10.71a14.78,14.78,0,0,1,.91-4.92,8.74,8.74,0,0,1,5-5,14.78,14.78,0,0,1,4.92-.91c2.8-.13,3.63-.15,10.71-.15s7.91,0,10.71.15a14.78,14.78,0,0,1,4.92.91,8.74,8.74,0,0,1,5,5,14.78,14.78,0,0,1,.91,4.92c.13,2.8.15,3.63.15,10.71S48.2,34.41,48.07,37.21Z"/><path d="M26.5,12.89A13.61,13.61,0,1,0,40.11,26.5,13.61,13.61,0,0,0,26.5,12.89Zm0,22.44a8.83,8.83,0,1,1,8.83-8.83,8.83,8.83,0,0,1-8.83,8.83Z"/><path d="M40.65,9.17a3.18,3.18,0,1,0,3.18,3.18,3.18,3.18,0,0,0-3.18-3.18Z"/></svg>