<svg id="Layer_1" data-name="Layer 1" xmlns="http://www.w3.org/2000/svg" viewBox="0 0 51.78 35.46"><title>social_email</title><path id="email" d="M49.44,0H2.33A2.33,2.33,0,0,0,0,2.34V33.1s0,.08,0,.12a2.13,2.13,0,0,0,0,.25,1.55,1.55,0,0,0,0,.21,2,2,0,0,0,.07.23l.09.2a1.28,1.28,0,0,0,.11.2l.13.2a1,1,0,0,1,.08.11l.06.06.22.2L1,35a2.26,2.26,0,0,0,.26.16l.15.08.36.11a.29.29,0,0,0,.1,0,1.91,1.91,0,0,0,.48,0h47.1a1.91,1.91,0,0,0,.48,0,.29.29,0,0,0,.1,0l.36-.11.14-.08.27-.16.15-.12a2,2,0,0,0,.21-.2l.07-.06a.52.52,0,0,0,.07-.11l.14-.19c0-.07.07-.14.11-.2a1.8,1.8,0,0,0,.08-.21,2,2,0,0,0,.07-.23,1.29,1.29,0,0,0,.05-.21,2,2,0,0,0,0-.25s0-.08,0-.12V2.34A2.34,2.34,0,0,0,49.44,0ZM44,4.67,30.6,15.55a2.22,2.22,0,0,0-.94.65,1.38,1.38,0,0,0-.17.25l-3.58,2.89L8.41,4.67Zm-39.36,3,12.06,10.1L4.67,28Zm4,23.13,11.7-10,4,3.38a2.34,2.34,0,0,0,3,0l4.13-3.35,11.62,9.93ZM47.11,28,35.18,17.85,47.11,8.19Z"/></svg>