<svg id="Layer_1" data-name="Layer 1" xmlns="http://www.w3.org/2000/svg" viewBox="0 0 53.03 37.3"><title>social_youtube</title><path id="play" d="M.78,30c.88,4.5,2.93,6.16,7.43,6.65s9,.39,13.5.49c7.92.29,15.83,0,23.75-.49a6.51,6.51,0,0,0,6.46-5.08,12.18,12.18,0,0,0,.68-3.33,108.37,108.37,0,0,0,.3-14.86,26.28,26.28,0,0,0-1.18-8.21A6.47,6.47,0,0,0,46.93.91a25.61,25.61,0,0,0-3-.39C38.23.12,32.46,0,26.59,0S14.76.13,8.89.42C3.82.71,1.66,2.57.68,7.56c-.1.58-.2,1.27-.29,2A103,103,0,0,0,.1,23,33.88,33.88,0,0,0,.78,30ZM21,18V11.76c0-.88.29-1.08,1.07-.68,4.11,2.15,8.22,4.3,12.22,6.35.69.39.69.69,0,1.08-4,2-8.11,4.2-12.12,6.25-1.08.59-1.17,0-1.17-.88Z"/></svg>