<svg id="Layer_1" data-name="Layer 1" xmlns="http://www.w3.org/2000/svg" viewBox="0 0 41.28 51.85"><title>social_link</title><path id="link_down" data-name="link down" d="M30.6,35.63a5.39,5.39,0,0,0,.4-.54c.06-.07.1-.15.16-.23s.29-.47.42-.72l0-.06a8.25,8.25,0,0,0,.37-.8,2,2,0,0,0,.1-.26c.07-.2.14-.39.2-.59l.09-.29c.06-.23.12-.46.17-.7l0-.16a5.72,5.72,0,0,0,.12-.83,3.16,3.16,0,0,0,0-.32l0-.56v-.34c0-.2,0-.41,0-.61s0-.2,0-.3c0-.26-.07-.52-.12-.77s0-.24-.07-.36l-.12-.5c0-.12-.07-.24-.11-.37s-.12-.35-.18-.53l-.11-.3h0A10.15,10.15,0,0,0,26.5,20h0a10.36,10.36,0,0,0-2.85-.71c-.33,0-.67-.05-1-.05a10.06,10.06,0,0,0-7.17,3L13.2,24.47a4.48,4.48,0,0,0,2.45,2.44l2.26-2.26a6.65,6.65,0,0,1,4.73-2,5.25,5.25,0,0,1,.56,0l.52.07h0a6.62,6.62,0,0,1,5.5,5.5,5.94,5.94,0,0,1,.08.75v.05a6,6,0,0,1,0,.73v0A6.49,6.49,0,0,1,29,31.36a.14.14,0,0,1,0,.06,5.05,5.05,0,0,1-.23.61c0,.07-.06.13-.08.19s-.16.32-.25.47l-.12.21-.3.44-.14.18a7,7,0,0,1-.51.58L14.76,46.7a6.68,6.68,0,0,1-9.45-9.45h0L10,32.56a11,11,0,0,1-2.45-2.45L2.87,34.8A10.14,10.14,0,0,0,17.2,49.15l12.6-12.6c.23-.23.43-.46.63-.7A1.84,1.84,0,0,0,30.6,35.63Z"/><path id="link_up" data-name="link up" d="M37.15,3h0A10.14,10.14,0,0,0,22.81,3l-12.6,12.6A10.14,10.14,0,1,0,24.55,29.91l2.26-2.26a4.51,4.51,0,0,0-2.44-2.45L22.1,27.46A6.68,6.68,0,0,1,12.65,18l12.6-12.6a6.68,6.68,0,0,1,9.45,9.45L30,19.55A11.07,11.07,0,0,1,32.46,22l4.69-4.68A10.14,10.14,0,0,0,37.15,3Z"/></svg>