<svg id="Layer_1" data-name="Layer 1" xmlns="http://www.w3.org/2000/svg" viewBox="0 0 41.8 50.66"><title>social_pinterest</title><path d="M17.32,35.51c1.07,2,4.18,3.75,7.5,3.75,9.87,0,17-9.07,17-20.36C41.81,8.09,33,0,21.63,0,7.5,0,0,9.48,0,19.81c0,4.8,2.56,10.77,6.64,12.68.62.29,1,.16,1.1-.44s.66-2.68.91-3.71a1,1,0,0,0-.23-.94A12.7,12.7,0,0,1,6,19.93c0-7.22,5.46-14.2,14.77-14.2,8,0,13.68,5.48,13.68,13.32,0,8.85-4.47,15-10.29,15a4.75,4.75,0,0,1-5-4.5,4.86,4.86,0,0,1,.14-1.42C20.22,24.22,22,20,22,17.22c0-2.52-1.35-4.62-4.14-4.62-3.29,0-5.92,3.4-5.92,8a11.77,11.77,0,0,0,1,4.86S9.68,39.13,9.09,41.69a27.75,27.75,0,0,0-.26,7.88,31.67,31.67,0,0,0,3.1,1.09,32.44,32.44,0,0,0,3.35-7.37C15.68,41.75,17.32,35.51,17.32,35.51Z"/></svg>