<svg xmlns="http://www.w3.org/2000/svg" viewBox="0 0 486.37 409.24"><title>icon</title><rect y="102.58" width="486.37" height="306.66" rx="31.57" ry="31.57" style="fill:#7e9fc3"/><circle cx="144.18" cy="255.91" r="83.3" style="fill:#fff"/><path d="M252.13,235H458V195.63H213.74A95.75,95.75,0,0,1,252.13,235Z" transform="translate(-12.63 -23.03)" style="fill:#fff"/><rect x="252.25" y="202.1" width="5.32" height="9.83" style="fill:#7e9fc3"/><rect x="268.3" y="192.27" width="5.32" height="19.66" style="fill:#7e9fc3"/><rect x="284.38" y="202.1" width="5.32" height="9.83" style="fill:#7e9fc3"/><rect x="300.44" y="192.27" width="5.32" height="19.66" style="fill:#7e9fc3"/><rect x="316.52" y="202.1" width="5.32" height="9.83" style="fill:#7e9fc3"/><rect x="332.57" y="192.27" width="5.32" height="19.66" style="fill:#7e9fc3"/><rect x="348.65" y="202.1" width="5.32" height="9.83" style="fill:#7e9fc3"/><rect x="364.7" y="192.27" width="5.32" height="19.66" style="fill:#7e9fc3"/><rect x="380.78" y="202.1" width="5.32" height="9.83" style="fill:#7e9fc3"/><rect x="396.84" y="192.27" width="5.32" height="19.66" style="fill:#7e9fc3"/><rect x="412.92" y="202.1" width="5.32" height="9.83" style="fill:#7e9fc3"/><rect x="428.97" y="192.27" width="5.32" height="19.66" style="fill:#7e9fc3"/><circle cx="289.71" cy="255.91" r="16.07" style="fill:#fff"/><circle cx="348.65" cy="255.91" r="16.07" style="fill:#fff"/><circle cx="407.59" cy="255.91" r="16.07" style="fill:#fff"/><path d="M95.91,301.19H217.19a64.22,64.22,0,0,0,3.41-13.95H92.51A64.21,64.21,0,0,0,95.91,301.19Z" transform="translate(-12.63 -23.03)" style="fill:none"/><path d="M105,240.07H208.11a65,65,0,0,0-14.44-13.95H119.43A65.46,65.46,0,0,0,105,240.07Z" transform="translate(-12.63 -23.03)" style="fill:none"/><path d="M119.43,331.75h74.24a65,65,0,0,0,14.44-13.95H105A65.46,65.46,0,0,0,119.43,331.75Z" transform="translate(-12.63 -23.03)" style="fill:none"/><path d="M92.51,270.63H220.6a64.22,64.22,0,0,0-3.41-13.95H95.91A64.21,64.21,0,0,0,92.51,270.63Z" transform="translate(-12.63 -23.03)" style="fill:none"/><path d="M119.43,226.12h74.24a64.37,64.37,0,0,0-74.24,0Z" transform="translate(-12.63 -23.03)" style="fill:#7e9fc3"/><path d="M95.91,256.68H217.19a64.69,64.69,0,0,0-9.08-16.61H105A64.69,64.69,0,0,0,95.91,256.68Z" transform="translate(-12.63 -23.03)" style="fill:#7e9fc3"/><path d="M92,278.93a65,65,0,0,0,.55,8.31H220.6a63,63,0,0,0,0-16.61H92.51A65,65,0,0,0,92,278.93Z" transform="translate(-12.63 -23.03)" style="fill:#7e9fc3"/><path d="M105,317.8H208.11a64.69,64.69,0,0,0,9.08-16.61H95.91A64.69,64.69,0,0,0,105,317.8Z" transform="translate(-12.63 -23.03)" style="fill:#7e9fc3"/><path d="M156.55,343.53a64.21,64.21,0,0,0,37.12-11.78H119.43A64.21,64.21,0,0,0,156.55,343.53Z" transform="translate(-12.63 -23.03)" style="fill:#7e9fc3"/><line x1="399.5" y1="142.14" x2="410.51" y2="10.43" style="fill:none;stroke:#7e9fc3;stroke-miterlimit:10;stroke-width:10.008000000000001px"/><circle cx="410.51" cy="10.43" r="10.43" style="fill:#7e9fc3"/></svg>